<mxfile host="app.diagrams.net" modified="2024-06-03T10:09:22.159Z" agent="Mozilla/5.0 (Macintosh; Intel Mac OS X 10_15_7) AppleWebKit/537.36 (KHTML, like Gecko) Chrome/125.0.0.0 Safari/537.36" version="24.4.13" etag="fKN3chWyLxcIkS8Nfbmj" type="github">
  <diagram name="Page-1" id="gXQe6kUvt1ci6GSDuus0">
    <mxGraphModel>
      <root>
        <mxCell id="0" />
        <mxCell id="1" parent="0" />
      </root>
    </mxGraphModel>
  </diagram>
</mxfile>
